<?xml version="1.0" encoding="UTF-8"?>
<svg id="Calque_1" data-name="Calque 1" xmlns="http://www.w3.org/2000/svg" viewBox="0 0 1182.28 1087.65">
  <defs>
    <style>
      .cls-1 {
        fill: #1d1d1b;
      }
    </style>
  </defs>
  <path class="cls-1" d="M1182.04,852.83l-131.2,70.61c-66.43-116.42-158.67-225.19-283.23-280.98,10.54,41.44,20.5,83.47,24.83,126.17,15.17,149.83-31.59,267.63-185.39,308.81-228.83,61.26-410.49-164.36-314.35-377.04,35.17-77.81,106.47-155.75,181.97-195.9,3.16-1.68,18.96-10.25,20.94-9.22,3.12,1.62,28.27,55,31.62,62.61,10.76,24.42,19.58,49.64,28.48,74.79-54.91,28.06-106.92,81.89-129.43,139.82-44.96,115.66,80.84,211.42,184.29,139.8,46.16-31.96,34.22-118.11,25.65-166.6-25.31-143.13-92.66-281.84-171.44-402.53-37.48-57.41-92.83-132.01-149.21-171.13-7.83-5.44-34.33-21.85-42.95-20.65-6.65.92-22.51,25.68-26.14,32.15-53.55,95.35-72.54,282.8-81.69,392.91-13.11,157.74-17.4,325.45-11.73,483.66.21,5.88-.26,11.84-.05,17.71l-150.47,3.35c-2.38-1.66-1.02-42.97-1.17-49.82-4.39-195.31,1.15-400.87,26.28-594.62,15.1-116.38,47.53-314.06,139.05-394.39,125.43-110.11,268.7,18.32,349.8,115.77,76.47,91.89,136.5,199.53,186.36,307.87,192.15,32.39,348.16,172.81,449.22,332.69,8.75,13.84,19.02,29.77,26.35,44.26,1,1.98,4.83,8.24,3.61,9.92Z"/>
</svg>