<?xml version="1.0" encoding="UTF-8"?>
<svg id="Calque_1" data-name="Calque 1" xmlns="http://www.w3.org/2000/svg" viewBox="0 0 153.46 165.42">
  <defs>
    <style>
      .cls-1 {
        fill: #fff;
      }
    </style>
  </defs>
  <path class="cls-1" d="M69.68,161.47l31.96-61.7c.5-.96,1.47-1.55,2.54-1.55h33.68c7.02,0,15.6-7.15,15.6-15.5,0-8.35-8.58-15.5-15.6-15.5h-33.68c-1.07,0-2.05-.6-2.54-1.55L69.68,3.96C68.41,1.52,65.93,0,63.19,0h-7.85c-2.33,0-4.47,1.08-5.87,2.97-1.39,1.88-1.81,4.26-1.14,6.51l15.99,54.02c.26.88.1,1.81-.45,2.55-.55.74-1.38,1.16-2.3,1.16h-24.7c-1.01,0-1.96-.54-2.47-1.42l-9.29-15.84c-1.31-2.23-3.72-3.62-6.3-3.62H7.32c-2.32,0-4.46,1.07-5.85,2.95C.51,50.58,0,52.11,0,53.68c0,.69.1,1.39.3,2.08l7.55,26.15c.15.53.15,1.09,0,1.61L.3,109.66c-.66,2.25-.22,4.61,1.17,6.48,1.39,1.87,3.53,2.95,5.85,2.95h11.5c2.57,0,4.99-1.39,6.3-3.62l9.29-15.84c.51-.88,1.46-1.42,2.47-1.42h24.7c.91,0,1.75.42,2.3,1.16.55.74.71,1.67.45,2.55l-15.99,54.02c-.66,2.25-.25,4.63,1.14,6.51,1.4,1.89,3.53,2.97,5.87,2.97h7.85c2.73,0,5.22-1.52,6.48-3.96Z"/>
</svg>